<?xml version="1.0" encoding="UTF-8" standalone="no"?>
<svg
   width="358"
   height="176"
   viewBox="0 195 358 176"
   fill="none"
   version="1.1"
   id="svg6"
   sodipodi:docname="zigzag.svg"
   inkscape:version="1.3.2 (091e20e, 2023-11-25)"
   xmlns:inkscape="http://www.inkscape.org/namespaces/inkscape"
   xmlns:sodipodi="http://sodipodi.sourceforge.net/DTD/sodipodi-0.dtd"
   xmlns="http://www.w3.org/2000/svg"
   xmlns:svg="http://www.w3.org/2000/svg">
  <defs
     id="defs6" />
  <sodipodi:namedview
     id="namedview6"
     pagecolor="#ffffff"
     bordercolor="#000000"
     borderopacity="0.25"
     inkscape:showpageshadow="2"
     inkscape:pageopacity="0.0"
     inkscape:pagecheckerboard="0"
     inkscape:deskcolor="#d1d1d1"
     inkscape:clip-to-page="false"
     inkscape:zoom="2.3590426"
     inkscape:cx="186.7283"
     inkscape:cy="160.02255"
     inkscape:window-width="1920"
     inkscape:window-height="1132"
     inkscape:window-x="0"
     inkscape:window-y="0"
     inkscape:window-maximized="1"
     inkscape:current-layer="svg6" />
  <path
     d="m 275.841,353.178 2.457,-23.859 19.536,-4.85 2.438,-23.841 19.539,-4.869 2.454,-23.84 19.539,-4.869"
     stroke="#d3b714"
     stroke-width="2.65"
     id="path1" />
  <path
     d="m 288.745,367.37 2.456,-23.858 19.536,-4.85 2.439,-23.842 19.539,-4.868 2.454,-23.841 19.538,-4.868"
     stroke="#d3b714"
     stroke-width="2.65"
     id="path2" />
  <path
     d="m 321.716,356.451 16.731,9.434 1.07,-14.153 z"
     stroke="#037b0b"
     stroke-width="2"
     stroke-dasharray="2, 2"
     id="path3" />
  <path
     d="m 340.22,256.983 c 4.923,0 8.914,-3.991 8.914,-8.914 0,-4.923 -3.991,-8.914 -8.914,-8.914 -4.923,0 -8.914,3.991 -8.914,8.914 0,4.923 3.991,8.914 8.914,8.914 z"
     stroke="#d3b714"
     stroke-width="2.31"
     stroke-dasharray="3, 2"
     id="path4" />
  <path
     d="m 242.192,343.64 0.784,-31.125 24.286,-10.045 0.784,-31.126 24.293,-10.069 0.759,-31.106 24.294,-10.069 m -63.439,134.082 0.783,-31.125 24.275,-10.074 0.784,-31.125 24.287,-10.045 0.783,-31.125 24.294,-10.07"
     stroke="#06bbc7"
     stroke-width="2"
     id="path5" />
  <path
     d="m 208.894,322.078 0.784,-31.125 24.287,-10.045 0.783,-31.126 24.294,-10.069 0.759,-31.106 24.293,-10.069 m -63.439,134.082 0.784,-31.125 24.275,-10.074 0.783,-31.125 24.287,-10.045 0.784,-31.125 24.293,-10.07"
     stroke="#e73635"
     stroke-width="2"
     id="path6" />
</svg>
